<svg width="79" height="30" viewBox="0 0 79 30" fill="none" xmlns="http://www.w3.org/2000/svg">
<path d="M30.0507 1.76527C28.9847 2.83126 26.7005 7.2475 23.604 14.0495C18.6802 24.8109 17.3604 26.9937 15.5837 26.9937C14.7715 26.9937 14.6193 26.7399 14.9238 25.4708C15.0761 24.6079 15.9898 22.1713 17.005 20.0394C19.0863 15.5724 19.1878 14.151 17.6649 13.0343C16.5482 12.2729 16.4467 12.3236 15.3299 13.6434L14.1117 15.0647L14.467 13.4911C14.8223 11.5622 13.7563 10.2424 11.7766 10.2424C6.39593 10.2424 0 18.618 0 25.7246C0 28.1104 0.152284 28.618 1.26903 29.3287C3.55329 30.8008 7.15735 28.6688 10.203 23.948C11.0152 22.7297 11.0152 22.7297 10.8122 25.2678C10.5584 27.4505 10.7106 28.0596 11.6243 28.9734C13.3502 30.6992 15.533 30.2424 18.3756 27.6536L19.6954 26.3845L20.0507 27.5013C20.5076 28.9226 23.5025 30.1916 25.3807 29.7855C26.1421 29.6332 27.3096 28.9226 27.9187 28.2627L29.0355 27.0444L30.1522 28.2627C30.7106 28.9226 31.8274 29.5825 32.6395 29.7348C33.8578 30.0393 34.0101 29.8871 34.0101 28.8211C34.0101 28.1612 34.7208 26.283 35.5837 24.6586C37.1573 21.5622 41.1167 16.1307 41.472 16.4861C41.5735 16.5876 40.8629 18.3642 39.8476 20.4454C37.0558 26.2322 37.5634 29.0749 41.5228 29.8363C42.9441 30.1409 43.1471 30.0393 43.1471 29.0241C43.1471 26.8414 49.7969 15.6739 50.6091 16.4861C50.7106 16.6383 50.1522 18.0597 49.34 19.7348C47.0558 24.2525 46.4466 26.7906 47.4111 28.2627C48.4771 29.9378 50.8121 30.2931 53.0456 29.2272C54.0608 28.7703 55.1776 27.9581 55.4821 27.3997C56.2943 26.1815 56.7004 26.2322 57.0557 27.7551C58.0202 31.6129 62.6902 30.1409 66.5989 24.7094L68.1217 22.6789L67.7664 25.0647C67.4618 27.1967 67.5633 27.552 68.7816 28.8211C69.8476 29.8871 70.406 30.0901 71.7258 29.8363C73.9085 29.3794 76.8527 26.3845 78.1725 23.2881C79.1369 21.1053 79.1877 20.547 78.6801 19.4302C78.0202 18.1104 78.0202 18.1104 77.411 20.4962C76.345 24.4048 74.4161 26.9937 72.5379 26.9937C71.5735 26.9937 72.1826 24.2525 74.1115 19.8871C76.2943 15.0647 76.2943 13.948 74.1115 12.7805C73.2994 12.3236 72.9948 12.4759 72.3349 13.7957C71.2689 15.8262 71.1166 15.7246 71.4212 13.2881C71.675 11.5115 71.5735 11.2069 70.406 10.6993C66.6496 8.97338 61.6243 12.7805 58.274 19.8363C56.0913 24.5571 54.1623 26.9937 52.6903 26.9937C51.2182 26.9937 51.5735 25.3693 54.2639 20.0901C58.4263 12.0698 58.5278 11.0038 55.5329 10.4455C53.3502 10.0394 52.9948 10.3439 48.3756 16.4861C46.3451 19.2272 44.67 21.3591 44.67 21.1561C44.67 21.0038 45.4314 19.3287 46.3959 17.4505C48.6801 12.9328 48.8324 11.7145 47.208 10.9023C44.7715 9.63328 43.9086 10.0394 41.2182 13.6434C39.8476 15.5724 38.071 18.0597 37.3096 19.2779C36.5482 20.4454 35.7867 21.3084 35.6852 21.2069C35.3299 20.8515 39.34 12.4759 40.0507 12.0698C41.0152 11.4607 39.6954 10.2424 38.1218 10.2424C35.9898 10.2424 34.3147 12.4252 31.4213 19.1257C28.4263 26.1307 27.7157 27.0952 25.939 26.8921C23.6548 26.6383 24.2132 23.7449 28.4771 14.3033C32.3857 5.57237 33.8578 3.33887 35.5837 3.79573C36.2944 3.99877 36.5482 3.79573 36.5482 3.03431C36.5482 -0.366703 32.8426 -1.07736 30.0507 1.76527ZM12.538 14.9125C13.401 15.9784 12.335 18.5165 9.49237 22.4759C6.54821 26.5876 5.43146 27.552 4.51776 26.6383C3.09644 25.217 7.15735 16.6383 9.99998 15.1155C11.7766 14.151 11.9289 14.151 12.538 14.9125ZM69.9491 15.4201C70.3552 17.5521 64.01 26.9937 62.1319 26.9937C60.9644 26.9937 61.2689 23.948 62.8425 20.6485C65.076 15.9277 69.4415 12.7297 69.9491 15.4201Z" fill="#DC0200"/>
<path d="M51.4675 2.26529C47.0141 -0.548774 43.329 0.259318 41.8571 1.3626C43.1039 1.3626 44.4545 2.56619 44.974 3.16798C40.8182 2.44581 39.2597 4.87307 39 6.17696C42.1169 5.27427 44.4545 5.87607 49.9091 7.68145C54.2727 9.12575 57.7879 5.27426 59 3.16798C58.2208 3.76977 54.3247 4.07069 51.4675 2.26529Z" fill="#68B936"/>
</svg>
