<svg width="24" height="24" viewBox="0 0 24 24" fill="none" xmlns="http://www.w3.org/2000/svg">
<path d="M22.5 3H1.5V24H22.5V3Z" fill="white" fill-opacity="0.01"/>
<path d="M9.125 3H3.875C3.39175 3 3 3.39175 3 3.875V9.125C3 9.60825 3.39175 10 3.875 10H9.125C9.60825 10 10 9.60825 10 9.125V3.875C10 3.39175 9.60825 3 9.125 3Z" stroke="#AAAAAA" stroke-width="2" stroke-linejoin="round"/>
<path d="M9.125 13.5H3.875C3.39175 13.5 3 13.8918 3 14.375V19.625C3 20.1082 3.39175 20.5 3.875 20.5H9.125C9.60825 20.5 10 20.1082 10 19.625V14.375C10 13.8918 9.60825 13.5 9.125 13.5Z" stroke="#AAAAAA" stroke-width="2" stroke-linejoin="round"/>
<path d="M19.625 3H14.375C13.8918 3 13.5 3.39175 13.5 3.875V9.125C13.5 9.60825 13.8918 10 14.375 10H19.625C20.1082 10 20.5 9.60825 20.5 9.125V3.875C20.5 3.39175 20.1082 3 19.625 3Z" stroke="#AAAAAA" stroke-width="2" stroke-linejoin="round"/>
<path d="M19.625 13.5H14.375C13.8918 13.5 13.5 13.8918 13.5 14.375V19.625C13.5 20.1082 13.8918 20.5 14.375 20.5H19.625C20.1082 20.5 20.5 20.1082 20.5 19.625V14.375C20.5 13.8918 20.1082 13.5 19.625 13.5Z" stroke="#AAAAAA" stroke-width="2" stroke-linejoin="round"/>
</svg>
